<svg width="48" height="48" viewBox="0 0 48 48" fill="none" xmlns="http://www.w3.org/2000/svg">
<g id="Large/Apply Icon">
<path id="Ellipse 16 (Stroke)" fill-rule="evenodd" clip-rule="evenodd" d="M24 45C12.402 45 3 35.598 3 24C3 12.402 12.402 3 24 3C35.598 3 45 12.402 45 24C45 35.598 35.598 45 24 45ZM24 48C10.7452 48 0 37.2548 0 24C0 10.7452 10.7452 0 24 0C37.2548 0 48 10.7452 48 24C48 37.2548 37.2548 48 24 48Z" fill="#C2E84E"/>
<path id="Union" d="M23.5546 29.6866C23.504 29.7572 23.447 29.8246 23.3835 29.888C22.759 30.5114 21.7465 30.5114 21.122 29.888L15.4684 24.2442C14.8439 23.6207 14.8439 22.61 15.4684 21.9866C16.0928 21.3632 17.1053 21.3632 17.7298 21.9866L22.2374 26.4864L30.2702 18.4676C30.8947 17.8441 31.9071 17.8441 32.5316 18.4676C33.1561 19.091 33.1561 20.1017 32.5316 20.7251L23.5546 29.6866Z" fill="#C2E84E"/>
</g>
</svg>
